<svg
  width="19"
  height="19"
  viewBox="0 0 19 19"
  fill="none"
  xmlns="http://www.w3.org/2000/svg"
>
<path
    d="M18 9.78007C18.06 12.1901 17.17 14.4701 15.52 16.2101C13.86 17.9501 11.62 18.9401 9.22 19.0001H8.99C6.67 19.0001 4.48 18.1201 2.79 16.5201C1.42 15.2101 0.51 13.5401 0.16 11.6901C0.0800001 11.2901 0.35 10.8901 0.76 10.8201C1.16 10.7401 1.56 11.0101 1.63 11.4101C1.93 12.9501 2.69 14.3401 3.83 15.4301C5.28 16.8101 7.2 17.5301 9.18 17.5001C11.18 17.4501 13.05 16.6201 14.43 15.1701C15.81 13.7201 16.55 11.8201 16.5 9.82007C16.45 7.82007 15.62 5.95007 14.17 4.57007C12.72 3.19007 10.79 2.45007 8.82 2.50007C6.82 2.55007 4.95 3.38007 3.57 4.83007C3.22 5.19007 2.92 5.58007 2.66 6.00007H5.02C5.44 6.00007 5.77 6.34007 5.77 6.75007C5.77 7.16007 5.44 7.50007 5.02 7.50007H0.75C0.34 7.50007 0 7.16007 0 6.75007V2.23007C0 1.81007 0.34 1.48007 0.75 1.48007C1.16 1.48007 1.5 1.81007 1.5 2.23007V5.03007C1.79 4.59007 2.12 4.17007 2.48 3.79007C4.14 2.05007 6.38 1.06007 8.78 1.00007C11.22 0.950066 13.47 1.83007 15.21 3.48007C16.95 5.14007 17.94 7.38007 18 9.78007Z M12.41 14.27C12.27 14.42 12.07 14.5 11.88 14.5C11.69 14.5 11.5 14.43 11.35 14.29L8.48 11.48C8.4 11.41 8.35 11.32 8.31 11.23C8.27 11.14 8.25 11.04 8.25 10.94V6.75C8.25 6.34 8.59 6 9 6C9.41 6 9.75 6.34 9.75 6.75V10.63L12.4 13.21C12.7 13.5 12.7 13.98 12.41 14.27Z"
    fill="#575757"
    class="myHistory"
  />
<!-- <path
    d="M12.41 14.27C12.27 14.42 12.07 14.5 11.88 14.5C11.69 14.5 11.5 14.43 11.35 14.29L8.48 11.48C8.4 11.41 8.35 11.32 8.31 11.23C8.27 11.14 8.25 11.04 8.25 10.94V6.75C8.25 6.34 8.59 6 9 6C9.41 6 9.75 6.34 9.75 6.75V10.63L12.4 13.21C12.7 13.5 12.7 13.98 12.41 14.27Z"
    fill="#575757"
  /> -->
</svg>
