<svg
  width="20"
  height="20"
  viewBox="0 0 20 20"
  fill="none"
  xmlns="http://www.w3.org/2000/svg"
>
<path
    d="M17.1424 10.7144V7.85728C17.1424 7.4784 16.9919 7.11504 16.724 6.84713C16.4561 6.57922 16.0927 6.42871 15.7139 6.42871H2.14244C1.76356 6.42871 1.4002 6.57922 1.13229 6.84713C0.864377 7.11504 0.713867 7.4784 0.713867 7.85728V17.8573C0.713867 18.2362 0.864377 18.5995 1.13229 18.8674C1.4002 19.1353 1.76356 19.2859 2.14244 19.2859H15.7139C16.0927 19.2859 16.4561 19.1353 16.724 18.8674C16.9919 18.5995 17.1424 18.2362 17.1424 17.8573V14.2859 M5.48535 2.85732L13.5854 0.74303C13.6764 0.717385 13.7716 0.710447 13.8654 0.722637C13.9592 0.734826 14.0495 0.765889 14.131 0.813952C14.2124 0.862014 14.2833 0.926079 14.3393 1.00228C14.3953 1.07848 14.4352 1.16524 14.4568 1.25732L14.8568 2.85732 M18.5709 10.7148H14.9994C14.605 10.7148 14.2852 11.0346 14.2852 11.4291V13.572C14.2852 13.9665 14.605 14.2863 14.9994 14.2863H18.5709C18.9654 14.2863 19.2852 13.9665 19.2852 13.572V11.4291C19.2852 11.0346 18.9654 10.7148 18.5709 10.7148Z"
    stroke="#575757"
    stroke-width="2"
    stroke-linecap="round"
    stroke-linejoin="round"
    class="myWallet"
  />
<!-- <path
    d="M5.48535 2.85732L13.5854 0.74303C13.6764 0.717385 13.7716 0.710447 13.8654 0.722637C13.9592 0.734826 14.0495 0.765889 14.131 0.813952C14.2124 0.862014 14.2833 0.926079 14.3393 1.00228C14.3953 1.07848 14.4352 1.16524 14.4568 1.25732L14.8568 2.85732"
    stroke="#575757"
    stroke-width="2"
    stroke-linecap="round"
    stroke-linejoin="round"
  />
<path
    d="M18.5709 10.7148H14.9994C14.605 10.7148 14.2852 11.0346 14.2852 11.4291V13.572C14.2852 13.9665 14.605 14.2863 14.9994 14.2863H18.5709C18.9654 14.2863 19.2852 13.9665 19.2852 13.572V11.4291C19.2852 11.0346 18.9654 10.7148 18.5709 10.7148Z"
    stroke="#575757"
    stroke-width="2"
    stroke-linecap="round"
    stroke-linejoin="round"
  /> -->
</svg>
